<svg xmlns="http://www.w3.org/2000/svg" width="736" height="736" viewBox="0 0 736 736">
<g>
<path d="M 0.00 0.00 L 736.00 0.00 L 736.00 736.00 L 0.00 736.00 ZM 326.50 440.21 C328.70,440.40 331.40,440.40 332.50,440.21 C333.60,440.02 336.19,439.76 338.25,439.63 C342.88,439.34 344.33,437.98 344.22,434.05 C344.17,432.37 344.44,430.97 344.82,430.94 C345.19,430.91 347.67,430.72 350.32,430.51 C357.25,429.96 361.10,428.98 360.45,427.92 C360.14,427.41 360.31,427.00 360.83,427.00 C361.35,427.00 361.72,426.21 361.64,425.25 C361.55,424.15 362.05,423.65 363.00,423.90 C363.83,424.12 365.17,424.25 366.00,424.19 C366.83,424.13 373.25,423.66 380.27,423.15 C387.29,422.64 393.63,421.72 394.36,421.12 C395.09,420.51 395.98,420.31 396.34,420.68 C396.70,421.04 397.00,420.40 397.00,419.26 C397.00,417.72 397.49,417.31 398.89,417.68 C399.93,417.95 401.08,417.69 401.45,417.09 C401.82,416.49 402.80,416.00 403.63,416.00 C406.21,416.00 407.67,413.65 408.24,408.55 C408.92,402.50 407.51,399.00 404.37,399.00 C402.09,399.00 400.19,396.64 400.56,394.25 C400.66,393.56 400.81,392.60 400.88,392.11 C401.08,390.63 404.16,389.89 405.49,390.99 C406.17,391.56 410.28,392.06 414.62,392.10 C426.36,392.21 429.00,392.42 429.00,393.25 C429.00,393.66 430.32,394.00 431.94,394.00 C433.56,394.00 435.14,394.42 435.46,394.94 C436.76,397.04 442.00,398.67 448.06,398.85 C452.65,398.99 454.07,398.75 453.00,398.04 C451.84,397.26 452.30,397.00 455.00,396.90 C456.92,396.82 458.85,396.82 459.27,396.89 C459.70,396.96 460.49,395.85 461.02,394.44 C461.72,392.62 462.67,391.91 464.25,392.04 C471.40,392.62 471.55,392.50 471.44,386.06 C471.35,380.57 469.73,376.43 468.08,377.45 C467.70,377.69 466.58,376.22 465.58,374.19 C464.59,372.16 463.45,369.84 463.06,369.04 C462.66,368.24 460.89,367.21 459.13,366.75 C457.37,366.30 456.12,365.60 456.35,365.21 C457.07,363.97 455.06,359.84 454.04,360.48 C452.53,361.41 447.22,358.26 446.50,356.01 C445.64,353.29 442.97,352.02 437.81,351.85 C430.08,351.61 429.68,351.03 430.48,341.41 C431.11,333.86 431.00,333.00 429.47,333.00 C428.09,333.00 427.99,332.72 428.96,331.55 C429.82,330.51 429.86,329.60 429.11,328.30 C428.53,327.31 428.04,326.95 428.02,327.50 C427.92,329.48 426.03,325.45 426.02,323.25 C426.01,322.01 425.63,321.00 425.18,321.00 C424.73,321.00 424.26,318.83 424.14,316.17 C423.79,308.50 422.73,305.73 420.00,305.32 C417.05,304.87 415.83,303.21 416.33,300.31 C416.91,296.91 415.48,295.56 411.55,295.82 C409.59,295.96 408.04,295.71 408.11,295.28 C408.76,291.31 405.99,286.27 403.88,287.58 C402.41,288.48 397.77,285.04 398.36,283.50 C399.36,280.90 396.42,280.21 385.00,280.37 C375.99,280.50 373.12,280.21 371.72,279.02 C370.75,278.18 367.58,277.02 364.68,276.43 C360.09,275.50 358.52,275.65 352.46,277.63 C348.36,278.97 342.06,280.07 337.14,280.31 C329.16,280.71 326.22,281.92 327.65,284.25 C328.61,285.79 325.79,288.00 322.88,288.00 C321.29,288.00 319.96,288.34 319.92,288.75 C319.87,289.16 319.72,290.51 319.58,291.75 C319.45,292.99 319.00,294.34 318.58,294.75 C318.17,295.16 313.79,295.52 308.86,295.54 C302.92,295.57 299.62,295.99 299.12,296.80 C298.59,297.66 297.73,297.28 296.15,295.46 C294.93,294.06 294.19,292.50 294.50,292.01 C295.62,290.19 291.33,289.20 284.66,289.74 C279.49,290.15 277.56,290.74 276.68,292.14 C275.76,293.61 274.29,294.00 269.69,294.00 C264.32,294.00 263.91,293.84 264.50,292.00 C264.85,290.90 264.77,289.97 264.32,289.92 C263.87,289.88 262.60,289.61 261.50,289.32 C260.40,289.03 256.95,288.67 253.83,288.53 L 248.16 288.26 L 248.17 300.14 C248.18,307.00 248.56,311.77 249.09,311.44 C249.59,311.13 250.00,311.36 250.00,311.94 C250.00,312.52 250.34,312.95 250.75,312.88 C253.36,312.47 254.81,313.39 256.07,316.25 C257.12,318.63 258.15,319.50 259.93,319.50 C261.85,319.50 262.55,320.21 263.24,322.85 C263.93,325.50 264.95,326.53 268.10,327.77 C271.10,328.95 272.06,329.86 271.94,331.42 C271.61,335.71 271.94,336.16 275.25,335.93 C284.26,335.31 285.75,335.78 288.12,340.00 C289.41,342.30 291.12,344.00 292.13,344.00 C294.72,344.00 295.10,345.02 296.53,355.91 C297.74,365.16 297.99,365.76 301.31,367.10 C304.94,368.56 306.16,369.93 305.21,371.45 C302.20,376.27 303.87,383.70 308.10,384.34 C310.70,384.74 312.00,386.11 312.00,388.44 C312.00,391.67 313.84,392.78 318.50,392.38 C321.09,392.16 322.01,392.35 321.10,392.92 C320.18,393.50 319.65,395.88 319.55,399.81 C319.42,405.16 317.59,409.93 316.21,408.54 C315.61,407.95 312.00,411.91 312.00,413.16 C312.00,413.63 313.80,414.74 316.01,415.62 C319.74,417.11 320.00,417.47 319.65,420.64 C319.44,422.51 319.70,424.31 320.22,424.64 C320.74,424.96 321.02,428.08 320.84,431.57 C320.66,435.06 320.96,438.36 321.51,438.89 C322.05,439.43 324.30,440.02 326.50,440.21 ZM 361.00 356.83 C361.00,359.64 357.86,359.05 354.69,355.66 C351.71,352.48 350.77,352.21 341.84,352.08 C336.46,352.00 336.19,351.88 336.44,349.57 C336.84,345.92 335.50,344.56 331.76,344.81 C329.92,344.93 326.63,344.42 324.47,343.67 C321.26,342.56 320.49,341.79 320.31,339.54 C320.04,336.03 319.98,335.98 315.73,335.82 C312.64,335.70 312.13,335.32 311.77,332.86 C311.29,329.59 311.90,328.39 314.00,328.53 C316.56,328.70 319.11,326.95 318.88,325.19 C318.75,324.26 319.16,321.74 319.79,319.59 C320.41,317.45 320.72,315.36 320.47,314.96 C319.86,313.97 322.51,311.85 323.34,312.67 C324.32,313.65 328.00,309.94 328.00,307.97 C328.00,306.00 330.35,303.69 331.35,304.68 C332.19,305.53 337.10,300.97 336.46,299.93 C336.19,299.50 336.48,298.05 337.09,296.70 C338.08,294.53 338.51,294.37 340.96,295.29 C342.86,296.01 343.66,296.98 343.54,298.41 C343.31,301.30 344.77,304.00 346.57,304.00 C348.81,304.00 353.00,307.03 353.00,308.64 C353.00,309.42 354.03,310.44 355.29,310.92 C358.37,312.09 360.35,314.63 359.64,316.49 C359.32,317.32 359.53,318.00 360.09,318.00 C360.66,318.00 360.86,318.42 360.54,318.93 C359.79,320.15 363.26,321.22 365.36,320.42 C366.94,319.81 367.12,320.12 367.42,324.00 C367.58,325.98 365.81,327.87 364.33,327.30 C363.68,327.05 362.23,327.77 361.10,328.90 C359.46,330.54 359.23,331.47 359.97,333.42 C360.57,335.00 360.54,335.99 359.90,336.20 C358.54,336.65 358.04,340.23 359.15,341.63 C359.68,342.30 359.64,343.81 359.06,345.34 C358.52,346.77 358.43,348.15 358.87,348.42 C359.31,348.69 359.47,350.28 359.22,351.96 C358.95,353.79 359.21,355.00 359.89,355.00 C360.50,355.00 361.00,355.83 361.00,356.83 ZM 343.30 375.96 C343.62,376.70 327.98,376.60 326.77,375.86 C326.17,375.49 325.12,375.40 324.44,375.66 C323.76,375.92 322.90,375.65 322.53,375.05 C322.16,374.46 321.53,374.17 321.13,374.42 C320.73,374.67 320.32,372.99 320.22,370.69 C320.12,368.38 319.92,364.92 319.77,363.00 C319.54,359.99 319.83,359.45 321.84,359.17 C323.13,358.99 325.46,359.36 327.00,360.00 C329.15,360.89 330.34,360.89 332.02,359.99 C334.53,358.64 335.83,359.51 336.50,363.00 C336.97,365.45 338.86,367.21 340.16,366.40 C340.58,366.14 341.77,366.47 342.82,367.12 C344.40,368.11 344.58,368.91 343.91,371.90 C343.46,373.88 343.19,375.71 343.30,375.96 ZM 298.22 317.03 C297.63,319.04 296.82,319.52 293.85,319.62 C291.84,319.68 289.77,319.46 289.25,319.12 C287.44,317.94 287.22,313.05 288.89,311.21 C290.89,309.01 292.15,309.01 294.37,311.23 C295.32,312.18 296.74,313.31 297.52,313.75 C298.50,314.30 298.72,315.32 298.22,317.03 ZM 431.39 375.42 C430.26,378.36 425.46,376.76 424.15,373.00 C422.70,368.84 424.59,367.74 431.25,368.87 C432.15,369.03 432.24,373.21 431.39,375.42 ZM 398.08 390.14 C398.03,390.50 397.30,391.05 396.45,391.38 C395.48,391.75 395.15,391.57 395.57,390.88 C396.02,390.16 395.57,390.00 394.24,390.42 C391.12,391.42 390.57,388.33 393.52,386.39 C396.44,384.48 398.98,385.14 398.50,387.69 C398.31,388.68 398.12,389.79 398.08,390.14 ZM 317.89 356.75 C318.54,357.99 318.72,358.99 318.29,358.97 C316.97,358.91 313.00,355.25 313.00,354.09 C313.00,351.70 316.12,353.40 317.89,356.75 Z" fill="rgb(0,0,0)"/>
<path d="M 326.50 440.21 C324.30,440.02 322.05,439.43 321.51,438.89 C320.96,438.36 320.66,435.06 320.84,431.57 C321.02,428.08 320.74,424.96 320.22,424.64 C319.70,424.31 319.44,422.51 319.65,420.64 C320.00,417.47 319.74,417.11 316.01,415.62 C313.80,414.74 312.00,413.63 312.00,413.16 C312.00,411.91 315.61,407.95 316.21,408.54 C317.59,409.93 319.42,405.16 319.55,399.81 C319.65,395.88 320.18,393.50 321.10,392.92 C322.01,392.35 321.09,392.16 318.50,392.38 C313.84,392.78 312.00,391.67 312.00,388.44 C312.00,386.11 310.70,384.74 308.10,384.34 C303.87,383.70 302.20,376.27 305.21,371.45 C306.16,369.93 304.94,368.56 301.31,367.10 C297.99,365.76 297.74,365.16 296.53,355.91 C295.10,345.02 294.72,344.00 292.13,344.00 C291.12,344.00 289.41,342.30 288.12,340.00 C285.75,335.78 284.26,335.31 275.25,335.93 C271.94,336.16 271.61,335.71 271.94,331.42 C272.06,329.86 271.10,328.95 268.10,327.77 C264.95,326.53 263.93,325.50 263.24,322.85 C262.55,320.21 261.85,319.50 259.93,319.50 C258.15,319.50 257.12,318.63 256.07,316.25 C254.81,313.39 253.36,312.47 250.75,312.88 C250.34,312.95 250.00,312.52 250.00,311.94 C250.00,311.36 249.59,311.13 249.09,311.44 C248.56,311.77 248.18,307.00 248.17,300.14 L 248.16 288.26 L 253.83 288.53 C256.95,288.67 260.40,289.03 261.50,289.32 C262.60,289.61 263.87,289.88 264.32,289.92 C264.77,289.97 264.85,290.90 264.50,292.00 C263.91,293.84 264.32,294.00 269.69,294.00 C274.29,294.00 275.76,293.61 276.68,292.14 C277.56,290.74 279.49,290.15 284.66,289.74 C291.33,289.20 295.62,290.19 294.50,292.01 C294.19,292.50 294.93,294.06 296.15,295.46 C297.73,297.28 298.59,297.66 299.12,296.80 C299.62,295.99 302.92,295.57 308.86,295.54 C313.79,295.52 318.17,295.16 318.58,294.75 C319.00,294.34 319.45,292.99 319.58,291.75 C319.72,290.51 319.87,289.16 319.92,288.75 C319.96,288.34 321.29,288.00 322.88,288.00 C325.79,288.00 328.61,285.79 327.65,284.25 C326.22,281.92 329.16,280.71 337.14,280.31 C342.06,280.07 348.36,278.97 352.46,277.63 C358.52,275.65 360.09,275.50 364.68,276.43 C367.58,277.02 370.75,278.18 371.72,279.02 C373.12,280.21 375.99,280.50 385.00,280.37 C396.42,280.21 399.36,280.90 398.36,283.50 C397.77,285.04 402.41,288.48 403.88,287.58 C405.99,286.27 408.76,291.31 408.11,295.28 C408.04,295.71 409.59,295.96 411.55,295.82 C415.48,295.56 416.91,296.91 416.33,300.31 C415.83,303.21 417.05,304.87 420.00,305.32 C422.73,305.73 423.79,308.50 424.14,316.17 C424.26,318.83 424.73,321.00 425.18,321.00 C425.63,321.00 426.01,322.01 426.02,323.25 C426.03,325.45 427.92,329.48 428.02,327.50 C428.04,326.95 428.53,327.31 429.11,328.30 C429.86,329.60 429.82,330.51 428.96,331.55 C427.99,332.72 428.09,333.00 429.47,333.00 C431.00,333.00 431.11,333.86 430.48,341.41 C429.68,351.03 430.08,351.61 437.81,351.85 C442.97,352.02 445.64,353.29 446.50,356.01 C447.22,358.26 452.53,361.41 454.04,360.48 C455.06,359.84 457.07,363.97 456.35,365.21 C456.12,365.60 457.37,366.30 459.13,366.75 C460.89,367.21 462.66,368.24 463.06,369.04 C463.45,369.84 464.59,372.16 465.58,374.19 C466.58,376.22 467.70,377.69 468.08,377.45 C469.73,376.43 471.35,380.57 471.44,386.06 C471.55,392.50 471.40,392.62 464.25,392.04 C462.67,391.91 461.72,392.62 461.02,394.44 C460.49,395.85 459.70,396.96 459.27,396.89 C458.85,396.82 456.92,396.82 455.00,396.90 C452.30,397.00 451.84,397.26 453.00,398.04 C454.07,398.75 452.65,398.99 448.06,398.85 C442.00,398.67 436.76,397.04 435.46,394.94 C435.14,394.42 433.56,394.00 431.94,394.00 C430.32,394.00 429.00,393.66 429.00,393.25 C429.00,392.42 426.36,392.21 414.62,392.10 C410.28,392.06 406.17,391.56 405.49,390.99 C404.16,389.89 401.08,390.63 400.88,392.11 C400.81,392.60 400.66,393.56 400.56,394.25 C400.19,396.64 402.09,399.00 404.37,399.00 C407.51,399.00 408.92,402.50 408.24,408.55 C407.67,413.65 406.21,416.00 403.63,416.00 C402.80,416.00 401.82,416.49 401.45,417.09 C401.08,417.69 399.93,417.95 398.89,417.68 C397.49,417.31 397.00,417.72 397.00,419.26 C397.00,420.40 396.70,421.04 396.34,420.68 C395.98,420.31 395.09,420.51 394.36,421.12 C393.63,421.72 387.29,422.64 380.27,423.15 C373.25,423.66 366.83,424.13 366.00,424.19 C365.17,424.25 363.83,424.12 363.00,423.90 C362.05,423.65 361.55,424.15 361.64,425.25 C361.72,426.21 361.35,427.00 360.83,427.00 C360.31,427.00 360.14,427.41 360.45,427.92 C361.10,428.98 357.25,429.96 350.32,430.51 C347.83,430.70 345.49,430.89 344.91,430.94 C350.79,427.56 358.82,424.08 365.50,422.14 C372.15,420.21 388.17,417.02 399.89,415.30 C403.03,414.83 405.70,413.83 406.29,412.90 C407.72,410.63 406.37,406.29 403.67,404.52 C401.62,403.17 400.11,403.23 388.97,405.04 C374.10,407.47 363.58,410.08 352.79,414.02 C333.41,421.09 323.03,431.41 330.22,436.44 C333.40,438.67 334.64,438.42 339.33,434.63 C340.69,433.52 342.51,432.32 344.61,431.11 C344.35,431.52 344.18,432.69 344.22,434.05 C344.33,437.98 342.88,439.34 338.25,439.63 C336.19,439.76 333.60,440.02 332.50,440.21 C331.40,440.40 328.70,440.40 326.50,440.21 ZM 433.78 391.45 C449.41,393.88 460.73,393.12 464.47,389.39 C469.07,384.79 463.80,375.63 450.42,365.00 C436.43,353.88 430.20,351.65 428.46,357.11 C427.95,358.74 428.81,360.28 432.28,363.86 C443.02,374.96 440.94,380.00 425.63,380.00 L 425.50 380.00 C419.74,380.00 417.04,380.00 416.37,378.84 C415.79,377.81 416.76,375.89 418.59,372.29 L 418.64 372.19 C423.91,361.79 426.38,350.39 425.71,339.51 C424.09,313.33 408.00,292.21 382.83,283.24 C376.49,280.98 373.88,280.63 363.50,280.61 C354.68,280.60 349.91,281.08 345.50,282.43 C331.54,286.69 319.54,295.18 311.43,306.54 C306.67,313.21 301.10,325.66 301.03,329.75 C301.02,330.99 300.50,332.00 299.88,332.00 C298.07,332.00 289.72,325.48 284.81,320.22 C278.97,313.99 278.11,311.44 280.90,308.66 C282.76,306.80 284.19,306.55 293.14,306.53 C303.03,306.50 303.34,306.43 305.34,303.75 C306.67,301.96 307.05,300.65 306.42,300.02 C304.39,297.99 285.27,294.78 272.50,294.33 C261.30,293.93 259.01,294.12 256.00,295.68 C251.95,297.78 251.03,301.23 253.34,305.68 C254.78,308.46 264.14,318.10 269.00,321.79 C306.43,350.28 386.35,384.06 433.78,391.45 ZM 362.38 359.75 C362.05,361.54 361.26,362.98 360.64,362.95 C358.59,362.87 335.78,352.53 322.25,345.56 C313.60,341.10 310.09,339.38 309.21,336.77 C308.61,335.00 309.20,332.83 310.22,329.13 C310.28,328.92 310.34,328.71 310.40,328.50 C313.61,316.79 319.35,307.74 328.43,300.06 C331.56,297.42 335.87,294.46 338.00,293.50 C341.88,291.75 341.90,291.75 346.66,294.54 C353.28,298.42 367.10,312.39 370.85,319.00 C375.12,326.51 374.99,329.34 370.25,332.36 C362.65,337.19 360.70,341.83 362.20,351.50 C362.63,354.25 362.71,357.96 362.38,359.75 ZM 324.00 419.38 C326.20,421.37 328.75,423.00 329.65,423.00 C330.55,423.00 333.59,421.49 336.40,419.64 C339.20,417.79 343.75,415.28 346.50,414.06 C357.23,409.31 378.77,403.76 391.77,402.40 C395.22,402.03 398.26,401.39 398.52,400.97 C399.56,399.29 357.67,374.02 353.80,374.01 C352.87,374.00 346.64,376.50 339.97,379.56 C328.34,384.87 327.72,385.04 325.39,383.52 C320.03,380.01 314.04,369.60 310.98,358.50 C309.50,353.16 308.86,352.24 305.10,350.14 C302.78,348.85 300.64,348.03 300.33,348.33 C300.03,348.63 300.50,352.39 301.37,356.69 C304.51,372.20 314.98,388.15 327.49,396.45 C330.52,398.46 333.00,400.27 333.00,400.47 C333.00,400.67 331.31,401.85 329.25,403.08 C318.92,409.25 317.54,413.54 324.00,419.38 ZM 361.00 356.83 C361.00,355.83 360.50,355.00 359.89,355.00 C359.21,355.00 358.95,353.79 359.22,351.96 C359.47,350.28 359.31,348.69 358.87,348.42 C358.43,348.15 358.52,346.77 359.06,345.34 C359.64,343.81 359.68,342.30 359.15,341.63 C358.04,340.23 358.54,336.65 359.90,336.20 C360.54,335.99 360.57,335.00 359.97,333.42 C359.23,331.47 359.46,330.54 361.10,328.90 C362.23,327.77 363.68,327.05 364.33,327.30 C365.81,327.87 367.58,325.98 367.42,324.00 C367.12,320.12 366.94,319.81 365.36,320.42 C363.26,321.22 359.79,320.15 360.54,318.93 C360.86,318.42 360.66,318.00 360.09,318.00 C359.53,318.00 359.32,317.32 359.64,316.49 C360.35,314.63 358.37,312.09 355.29,310.92 C354.03,310.44 353.00,309.42 353.00,308.64 C353.00,307.03 348.81,304.00 346.57,304.00 C344.77,304.00 343.31,301.30 343.54,298.41 C343.66,296.98 342.86,296.01 340.96,295.29 C338.51,294.37 338.08,294.53 337.09,296.70 C336.48,298.05 336.19,299.50 336.46,299.93 C337.10,300.97 332.19,305.53 331.35,304.68 C330.35,303.69 328.00,306.00 328.00,307.97 C328.00,309.94 324.32,313.65 323.34,312.67 C322.51,311.85 319.86,313.97 320.47,314.96 C320.72,315.36 320.41,317.45 319.79,319.59 C319.16,321.74 318.75,324.26 318.88,325.19 C319.11,326.95 316.56,328.70 314.00,328.53 C311.90,328.39 311.29,329.59 311.77,332.86 C312.13,335.32 312.64,335.70 315.73,335.82 C319.98,335.98 320.04,336.03 320.31,339.54 C320.49,341.79 321.26,342.56 324.47,343.67 C326.63,344.42 329.92,344.93 331.76,344.81 C335.50,344.56 336.84,345.92 336.44,349.57 C336.19,351.88 336.46,352.00 341.84,352.08 C350.77,352.21 351.71,352.48 354.69,355.66 C357.86,359.05 361.00,359.64 361.00,356.83 ZM 388.75 356.53 C386.96,358.46 384.15,360.41 382.50,360.85 C376.06,362.61 369.07,358.31 366.98,351.32 C364.64,343.52 370.83,335.97 379.50,336.04 C387.00,336.10 391.98,341.17 391.99,348.76 C392.00,352.20 391.36,353.71 388.75,356.53 ZM 343.30 375.96 C343.19,375.71 343.46,373.88 343.91,371.90 C344.58,368.91 344.40,368.11 342.82,367.12 C341.77,366.47 340.58,366.14 340.16,366.40 C338.86,367.21 336.97,365.45 336.50,363.00 C335.83,359.51 334.53,358.64 332.02,359.99 C330.34,360.89 329.15,360.89 327.00,360.00 C325.46,359.36 323.13,358.99 321.84,359.17 C319.83,359.45 319.54,359.99 319.77,363.00 C319.92,364.92 320.12,368.38 320.22,370.69 C320.32,372.99 320.73,374.67 321.13,374.42 C321.53,374.17 322.16,374.46 322.53,375.05 C322.90,375.65 323.76,375.92 324.44,375.66 C325.12,375.40 326.17,375.49 326.77,375.86 C327.98,376.60 343.62,376.70 343.30,375.96 ZM 375.31 357.56 C379.31,359.32 382.72,358.60 386.25,355.24 C390.00,351.68 390.14,345.05 386.55,341.45 C383.34,338.25 376.48,338.05 372.67,341.04 C367.24,345.32 368.73,354.65 375.31,357.56 ZM 298.22 317.03 C298.72,315.32 298.50,314.30 297.52,313.75 C296.74,313.31 295.32,312.18 294.37,311.23 C292.15,309.01 290.89,309.01 288.89,311.21 C287.22,313.05 287.44,317.94 289.25,319.12 C289.77,319.46 291.84,319.68 293.85,319.62 C296.82,319.52 297.63,319.04 298.22,317.03 ZM 431.39 375.42 C432.24,373.21 432.15,369.03 431.25,368.87 C424.59,367.74 422.70,368.84 424.15,373.00 C425.46,376.76 430.26,378.36 431.39,375.42 ZM 398.08 390.14 C398.12,389.79 398.31,388.68 398.50,387.69 C398.98,385.14 396.44,384.48 393.52,386.39 C390.57,388.33 391.12,391.42 394.24,390.42 C395.57,390.00 396.02,390.16 395.57,390.88 C395.15,391.57 395.48,391.75 396.45,391.38 C397.30,391.05 398.03,390.50 398.08,390.14 ZM 317.89 356.75 C316.12,353.40 313.00,351.70 313.00,354.09 C313.00,355.25 316.97,358.91 318.29,358.97 C318.72,358.99 318.54,357.99 317.89,356.75 Z" fill="rgb(3,3,3)"/>
<path d="M 330.22 436.44 C323.03,431.41 333.41,421.09 352.79,414.02 C363.58,410.08 374.10,407.47 388.97,405.04 C400.11,403.23 401.62,403.17 403.67,404.52 C406.37,406.29 407.72,410.63 406.29,412.90 C405.70,413.83 403.03,414.83 399.89,415.30 C388.17,417.02 372.15,420.21 365.50,422.14 C356.28,424.81 344.52,430.43 339.33,434.63 C334.64,438.42 333.40,438.67 330.22,436.44 ZM 324.00 419.38 C317.54,413.54 318.92,409.25 329.25,403.08 C331.31,401.85 333.00,400.67 333.00,400.47 C333.00,400.27 330.52,398.46 327.49,396.45 C314.98,388.15 304.51,372.20 301.37,356.69 C300.50,352.39 300.03,348.63 300.33,348.33 C300.64,348.03 302.78,348.85 305.10,350.14 C308.86,352.24 309.50,353.16 310.98,358.50 C314.04,369.60 320.03,380.01 325.39,383.52 C327.72,385.04 328.34,384.87 339.97,379.56 C346.64,376.50 352.87,374.00 353.80,374.01 C357.67,374.02 399.56,399.29 398.52,400.97 C398.26,401.39 395.22,402.03 391.77,402.40 C378.77,403.76 357.23,409.31 346.50,414.06 C343.75,415.28 339.20,417.79 336.40,419.64 C333.59,421.49 330.55,423.00 329.65,423.00 C328.75,423.00 326.20,421.37 324.00,419.38 ZM 433.78 391.45 C386.35,384.06 306.43,350.28 269.00,321.79 C264.14,318.10 254.78,308.46 253.34,305.68 C251.03,301.23 251.95,297.78 256.00,295.68 C259.01,294.12 261.30,293.93 272.50,294.33 C285.27,294.78 304.39,297.99 306.42,300.02 C307.05,300.65 306.67,301.96 305.34,303.75 C303.34,306.43 303.03,306.50 293.14,306.53 C284.19,306.55 282.76,306.80 280.90,308.66 C278.11,311.44 278.97,313.99 284.81,320.22 C289.72,325.48 298.07,332.00 299.88,332.00 C300.50,332.00 301.02,330.99 301.03,329.75 C301.10,325.66 306.67,313.21 311.43,306.54 C319.54,295.18 331.54,286.69 345.50,282.43 C349.91,281.08 354.68,280.60 363.50,280.61 C373.88,280.63 376.49,280.98 382.83,283.24 C408.00,292.21 424.09,313.33 425.71,339.51 C426.38,350.39 423.91,361.79 418.64,372.19 C414.66,380.03 414.63,380.00 425.63,380.00 C440.94,380.00 443.02,374.96 432.28,363.86 C428.81,360.28 427.95,358.74 428.46,357.11 C430.20,351.65 436.43,353.88 450.42,365.00 C463.80,375.63 469.07,384.79 464.47,389.39 C460.73,393.12 449.41,393.88 433.78,391.45 ZM 362.38 359.75 C362.71,357.96 362.63,354.25 362.20,351.50 C360.70,341.83 362.65,337.19 370.25,332.36 C374.99,329.34 375.12,326.51 370.85,319.00 C367.10,312.39 353.28,298.42 346.66,294.54 C341.90,291.75 341.88,291.75 338.00,293.50 C335.87,294.46 331.56,297.42 328.43,300.06 C319.35,307.74 313.61,316.79 310.40,328.50 C307.70,338.31 307.43,337.93 322.25,345.56 C335.78,352.53 358.59,362.87 360.64,362.95 C361.26,362.98 362.05,361.54 362.38,359.75 ZM 388.75 356.53 C391.36,353.71 392.00,352.20 391.99,348.76 C391.98,341.17 387.00,336.10 379.50,336.04 C370.83,335.97 364.64,343.52 366.98,351.32 C369.07,358.31 376.06,362.61 382.50,360.85 C384.15,360.41 386.96,358.46 388.75,356.53 ZM 375.31 357.56 C368.73,354.65 367.24,345.32 372.67,341.04 C376.48,338.05 383.34,338.25 386.55,341.45 C390.14,345.05 390.00,351.68 386.25,355.24 C382.72,358.60 379.31,359.32 375.31,357.56 Z" fill="rgb(251,251,251)"/>
</g>
</svg>